<svg xmlns="http://www.w3.org/2000/svg" version="1.1" xmlns:xlink="http://www.w3.org/1999/xlink" xmlns:svgjs="http://svgjs.dev/svgjs" width="2000" height="2000" viewBox="0 0 2000 2000"><g transform="matrix(1,0,0,1,-0.28443113772425477,-0.28443113772459583)"><svg viewBox="0 0 334 334" data-background-color="#ffffff" preserveAspectRatio="xMidYMid meet" height="2000" width="2000" xmlns="http://www.w3.org/2000/svg" xmlns:xlink="http://www.w3.org/1999/xlink"><g id="tight-bounds" transform="matrix(1,0,0,1,0.04749999999998522,0.04750000000001364)"><svg viewBox="0 0 333.90454557049503 333.90454557049503" height="333.90454557049503" width="333.90454557049503"><g><svg></svg></g><g><svg viewBox="0 0 333.90454557049503 333.90454557049503" height="333.90454557049503" width="333.90454557049503"><g><path d="M0 166.952c0-92.205 74.747-166.952 166.952-166.952 92.205 0 166.952 74.747 166.953 166.952 0 92.205-74.747 166.952-166.953 166.953-92.205 0-166.952-74.747-166.952-166.953zM166.952 316.63c82.665 0 149.677-67.013 149.678-149.678 0-82.665-67.013-149.677-149.678-149.677-82.665 0-149.677 67.013-149.677 149.677 0 82.665 67.013 149.677 149.677 149.678z" data-fill-palette-color="tertiary" fill="#7a26c1" stroke="transparent"></path><ellipse rx="160.27418187383762" ry="160.27418187383762" cx="166.95227278524752" cy="166.95227278524752" fill="#7a26c1" stroke="transparent" stroke-width="0" fill-opacity="1" data-fill-palette-color="tertiary"></ellipse></g><g transform="matrix(1,0,0,1,92.80680321152786,71.17305217166896)"><svg viewBox="0 0 148.2909391474393 191.55844122715712" height="191.55844122715712" width="148.2909391474393"><g><svg viewBox="0 0 148.2909391474393 191.55844122715712" height="191.55844122715712" width="148.2909391474393"><g><svg viewBox="0 0 148.2909391474393 191.55844122715712" height="191.55844122715712" width="148.2909391474393"><g><svg viewBox="0 0 148.2909391474393 191.55844122715712" height="191.55844122715712" width="148.2909391474393"><g id="textblocktransform"><svg viewBox="0 0 148.2909391474393 191.55844122715712" height="191.55844122715712" width="148.2909391474393" id="textblock"><g><svg viewBox="0 0 148.2909391474393 191.55844122715712" height="191.55844122715712" width="148.2909391474393"><g transform="matrix(1,0,0,1,0,0)"><svg width="148.2909391474393" viewBox="1.015384554862976 -30.100000381469727 23.301280975341797 30.100000381469727" height="191.55844122715712" data-palette-color="#ffffff"><path d="M16.8-25.4L3.2-25.4Q1.4-25.4 1.3-27.75L1.3-27.75Q1.3-30.1 3.2-30.1L3.2-30.1 20.55-30.1Q22.15-30.1 23.08-29.58 24-29.05 24.1-28.15L24.1-28.15Q24.15-27.35 24.08-26.55 24-25.75 23.7-25.35L23.7-25.35 8.35-4.7 22.5-4.7Q24.3-4.7 24.3-2.35L24.3-2.35Q24.4-1.15 23.9-0.58 23.4 0 22.5 0L22.5 0 4.55 0Q1.3 0 1.05-1.9L1.05-1.9Q0.9-3.65 1.4-4.75L1.4-4.75 16.8-25.4Z" opacity="1" transform="matrix(1,0,0,1,0,0)" fill="#ffffff" class="wordmark-text-0" data-fill-palette-color="quaternary" id="text-0"></path></svg></g></svg></g></svg></g></svg></g><g></g></svg></g></svg></g></svg></g></svg></g><defs></defs></svg><rect width="333.90454557049503" height="333.90454557049503" fill="none" stroke="none" visibility="hidden"></rect></g></svg></g></svg>